<svg width="149" height="146" viewBox="0 0 149 146" fill="none" xmlns="http://www.w3.org/2000/svg">
<path d="M2.78534 142.003C1.28534 140.703 0.585418 133.003 0.485418 130.603C-0.714583 111.403 0.985418 91.0035 0.485418 71.5035C-0.0145825 52.7035 0.185418 35.9033 0.485418 17.3033C0.585418 11.6033 -2.41456 6.10316 5.38544 3.20316C13.5854 0.203165 31.9854 2.40316 41.6854 2.20316C51.3854 2.00316 68.8853 0.103458 81.7853 0.00345788C101.285 -0.0965421 122.185 2.00326 141.685 2.30326C146.885 2.30326 147.385 8.40336 147.685 12.4034C148.785 26.9034 146.885 44.6031 146.885 59.6031C146.885 83.1031 148.385 106.603 147.785 130.003C147.785 131.203 148.485 132.703 148.385 134.203C147.985 145.503 134.985 143.603 126.785 143.703C108.085 144.103 89.0854 143.003 70.4854 143.403C62.4854 143.603 53.9854 145.603 45.8854 145.103C37.7854 144.603 29.3854 143.803 18.3854 144.403C15.3854 144.603 4.68537 143.903 2.68537 142.103L2.78534 142.003ZM34.1854 21.2032C31.0854 21.4032 26.9854 23.8033 25.1854 26.3033C17.3854 37.3033 31.1854 49.9035 42.0854 42.5035C52.2854 35.6035 46.0854 20.2031 34.1854 21.1031V21.2032ZM125.185 121.003V80.5035C125.185 78.1035 122.885 68.6031 121.985 66.1031C115.985 51.0031 91.8854 50.7032 82.5854 63.2032L81.4854 56.6031L80.3854 55.5035H63.6854C62.5854 55.9035 62.0854 57.6032 62.0854 58.7032C61.6854 64.6032 63.1853 72.3033 63.2853 78.3033C63.4853 92.5033 63.0853 106.703 63.2853 120.903C66.6853 121.403 81.8854 122.703 83.3854 120.203L83.1854 82.7032C86.7854 71.5032 101.585 69.1035 104.685 82.0035C105.185 84.0035 104.985 86.7034 105.585 88.9034V120.903C112.085 121.303 118.685 122.003 125.285 120.903L125.185 121.003ZM44.4854 55.5035H28.2853C22.3853 55.5035 25.0854 61.5035 25.1854 65.0035C25.3854 74.4035 25.6854 83.9032 25.8854 93.2032C26.0854 102.503 25.5854 111.803 25.8854 121.003C32.6854 121.403 39.6854 122.703 46.3854 120.603C46.7854 104.603 45.8854 88.7032 45.5854 72.7032C45.5854 70.7032 46.3854 68.9031 46.3854 67.1031C46.3854 64.1031 44.9854 60.5032 45.5854 57.2032L44.4854 55.4034V55.5035Z" fill="#22458B"/>
</svg>
