<svg width="166" height="220" viewBox="0 0 166 220" fill="none" xmlns="http://www.w3.org/2000/svg">
<path d="M54.518 58.95C58.718 61.05 63.118 63.1501 67.318 65.2501C75.118 69.2501 83.018 74.3499 90.818 78.0499C98.618 81.7499 92.718 78.65 94.318 77.95C107.218 72.35 113.418 58.3499 127.818 53.5499C135.018 51.1499 144.618 51.45 140.018 61.65C137.018 68.25 130.018 72.0499 125.818 77.8499C121.618 83.6499 123.018 82.3499 121.618 84.5499C113.618 96.4499 102.718 109.75 86.518 106.55C79.118 105.15 72.118 101.45 65.018 99.15C63.518 104.45 61.6179 110.15 61.4179 115.75C61.0179 124.45 66.818 130.95 69.518 138.85C75.418 155.75 70.9179 185.95 97.2179 184.05C97.9179 184.05 98.7179 183.85 99.4179 183.55C99.9179 183.05 99.3179 179.85 99.2179 179.05C98.5179 158.45 112.218 137.75 133.618 135.25C137.218 134.85 138.018 135.35 138.318 139.05C139.018 148.75 135.018 163.35 129.318 171.25C123.618 179.15 123.918 176.95 121.218 180.05C120.818 180.45 118.818 182.95 119.118 183.35C123.118 181.85 127.318 180.35 131.618 179.75C142.318 178.15 148.018 180.45 156.718 185.95C158.918 187.35 164.518 190.55 165.118 193.15C166.318 199.05 159.018 199.85 155.218 201.85C153.318 202.85 151.718 204.35 149.918 205.55C137.518 213.95 120.118 213.25 108.818 203.15C107.518 202.05 106.518 200.55 105.218 199.55L101.418 203.45C82.0179 221.65 52.5178 224.95 30.1178 210.25C5.91782 194.35 -6.58204 162.25 3.51796 134.45C7.11796 124.45 14.1178 119.25 13.6178 107.75C12.8178 90.1501 -0.481987 66.35 21.318 55.65C23.018 54.75 27.318 53.6499 28.318 52.3499C29.318 51.0499 30.518 46.0499 30.318 44.3499C30.118 42.6499 28.0178 40.85 27.1178 39.65C22.1178 32.35 16.6178 18.55 23.1178 10.75C29.6178 2.95005 27.718 8.14985 30.018 6.54985C33.318 4.24985 33.7179 1.94995 38.4179 0.649952C45.8179 -1.45005 48.318 2.1499 54.518 2.8499C57.918 3.1499 63.3179 1.45005 65.7179 4.25005C68.1179 7.05005 66.6179 7.4499 68.2179 8.3499C70.2179 9.5499 74.018 7.65005 75.018 10.25C76.018 12.85 75.0179 13.85 74.2179 15.25C73.4179 16.65 71.7179 17.75 71.7179 18.45C71.7179 19.15 72.218 20.3499 72.318 21.0499C72.618 23.7499 72.6178 26.35 73.6178 28.95C74.6178 31.55 76.9179 34.35 76.9179 36.65C76.9179 40.15 73.318 39.05 72.018 41.15C70.718 43.25 71.1179 44.4499 70.7179 45.8499C68.9179 51.8499 65.718 55.8499 59.018 56.3499C56.718 56.5499 53.618 55.2499 54.518 58.8499V58.95ZM132.218 60.3499C129.018 60.4499 125.518 62.2499 122.818 64.0499C120.118 65.8499 117.118 69.6499 114.018 72.3499C110.918 75.0499 103.618 80.7499 98.6178 83.8499C96.5178 85.1499 93.7179 87.4499 91.2179 86.3499C86.2179 84.3499 80.2179 80.3501 75.2179 77.7501C67.3179 73.6501 58.718 69.95 51.018 65.65C48.718 64.35 47.8178 63.95 47.6178 60.95C47.3178 57.35 48.5179 49.85 53.2179 49.95C57.9179 50.05 59.3179 51.3499 62.4179 48.8499C65.8179 46.0499 65.0179 40.9499 66.7179 37.8499C68.4179 34.7499 69.518 36.6499 70.318 35.0499C69.618 32.8499 68.2178 30.85 67.6178 28.65C67.0178 26.45 67.1178 24.05 66.6178 21.75C66.1178 19.45 66.118 18.75 63.318 18.25C61.818 17.95 59.9179 17.6499 58.4179 17.5499C56.9179 17.4499 54.4179 17.1499 53.4179 17.5499C52.4179 17.9499 50.8178 21.5499 50.1178 22.5499C49.4178 23.5499 46.1179 28.35 45.2179 28.75C43.2179 29.65 42.4178 27.9499 41.1178 27.3499C37.1178 25.5499 34.5178 29.75 36.1178 33.25C36.5178 34.05 37.5179 35.2499 38.2179 35.8499C39.2179 36.6499 41.9179 37.45 40.9179 39.15C39.9179 40.85 38.1179 39.35 37.4179 41.15C36.7179 42.95 36.6179 46.05 36.2179 47.95C35.4179 51.95 34.418 57.05 30.518 59.15C24.518 62.45 18.7179 62.45 16.2179 70.45C13.1179 80.35 20.3179 98.05 20.9179 109.15C21.1179 111.75 20.718 114.45 20.818 116.95C21.218 117.85 29.7179 120.35 31.2179 120.65C36.8179 121.95 43.918 122.75 49.518 121.25C50.518 120.95 51.618 120.85 51.818 119.75C52.518 117.15 52.718 114.15 53.318 111.45C54.518 105.95 56.4179 100.65 57.9179 95.2501L57.7179 94.65L51.018 89.65C49.618 86.85 51.318 84.8501 54.318 85.7501C58.018 86.8501 62.618 89.4499 66.318 91.0499C75.118 94.7499 88.7179 101.35 97.9179 96.95C108.618 91.75 113.818 80.05 120.918 71.45C123.918 67.85 127.318 66.25 130.418 63.25C133.518 60.25 132.718 60.95 132.018 60.45L132.218 60.3499ZM58.018 147.95C57.618 148.05 56.2179 150.45 55.7179 151.05C53.6179 153.55 51.2178 154.15 48.1178 152.85C47.2178 152.45 45.3179 150.85 44.9179 150.75C44.5179 150.65 44.4179 150.75 44.2179 151.05C43.7179 151.65 44.918 153.25 45.318 153.85C48.818 158.25 54.518 158.45 57.518 153.45C60.518 148.45 60.318 147.35 58.018 147.95ZM15.4179 148.75C14.3179 148.75 15.1179 152.45 15.4179 153.15C17.4179 160.25 24.418 161.25 29.018 155.65C33.618 150.05 31.318 152.55 28.818 151.65C26.818 153.15 25.2179 155.75 22.2179 155.15C19.2179 154.55 17.518 151.25 15.518 148.85L15.4179 148.75ZM45.6178 161.85C45.0178 161.45 43.3179 163.35 42.7179 163.75C40.2179 165.35 37.618 164.75 35.318 163.15C33.718 163.65 35.318 165.35 36.018 166.05C38.518 168.15 42.0179 167.85 44.2179 165.45C46.4179 163.05 46.3178 162.35 45.6178 161.85ZM62.7179 170.55C61.9179 170.75 61.2178 173.25 60.6178 174.05C59.0178 176.25 56.318 176.65 53.818 175.95C51.318 175.25 50.7179 173.95 50.4179 175.15C50.1179 176.35 51.5179 177.55 52.2179 178.15C55.8179 181.25 61.7179 180.15 63.2179 175.45C63.5179 174.55 64.4179 170.05 62.7179 170.45V170.55ZM22.4179 179.15C21.5179 180.05 24.0179 183.25 24.7179 183.95C29.6179 188.75 36.0178 186.55 38.1178 180.45C40.2178 174.35 39.5179 176.15 37.4179 177.15C35.3179 178.15 34.6179 180.55 33.7179 181.35C31.0179 183.35 27.9179 182.95 25.4179 180.95C22.9179 178.95 23.5178 178.35 22.6178 179.35L22.4179 179.15ZM58.2179 192.35C57.6179 192.55 57.4178 194.95 57.1178 195.75C55.9178 198.35 53.4179 199.15 50.7179 198.95C49.7179 198.95 46.7179 197.55 46.4179 198.65C45.8179 200.35 49.9179 201.95 51.2179 202.15C56.2179 202.75 60.218 200.15 59.818 194.85C59.418 189.55 59.5179 192.05 58.2179 192.45V192.35Z" fill="#22458B"/>
<path d="M59.718 26.2501C61.418 26.0501 63.3181 26.1501 64.3181 27.7501C66.5181 31.2501 61.4179 33.35 58.1179 31.35C54.8179 29.35 56.7179 26.75 59.6179 26.35L59.718 26.2501Z" fill="#22458B"/>
</svg>
